<?xml version="1.0" standalone="no"?>
<!DOCTYPE svg PUBLIC "-//W3C//DTD SVG 1.1//EN" "http://www.w3.org/Graphics/SVG/1.1/DTD/svg11.dtd" >
<svg xmlns="http://www.w3.org/2000/svg">
<metadata>Generated by IcoMoon</metadata>
<defs>
<font id="icomoon" horiz-adv-x="1024">
<font-face units-per-em="1024" ascent="960" descent="-64" />
<missing-glyph horiz-adv-x="1024" />
<glyph unicode="&#x20;" horiz-adv-x="512" d="" />
<glyph unicode="&#xe900;" glyph-name="application-2" d="M859.296 779.328l-143.968 143.968c-2.896 2.912-6.896 4.704-11.328 4.704h-464c-44.112 0-80-35.888-80-80v-688c0-44.112 35.888-80 80-80h176v-112h32v112h240c8.832 0 16 7.152 16 16v80c0 29.76 20.432 54.864 48 61.968v-269.968h32v112c44.112 0 80 35.888 80 80v608c0 4.432-1.792 8.432-4.704 11.328zM720 873.376l89.376-89.376h-89.376v89.376zM832 160c0-26.464-21.536-48-48-48v144c0 8.848-7.168 16-16 16-52.944 0-96-43.056-96-96v-64h-432c-26.464 0-48 21.536-48 48v688c0 26.464 21.536 48 48 48h448v-128c0-8.848 7.168-16 16-16h128v-592zM320 576h160c8.832 0 16 7.152 16 16v224c0 8.848-7.168 16-16 16h-224c-8.832 0-16-7.152-16-16v-224c0-8.848 7.168-16 16-16h64zM352 720c0 8.832 7.184 16 16 16s16-7.168 16-16-7.184-16-16-16-16 7.168-16 16zM336 608v32c0 17.648 14.352 32 32 32s32-14.352 32-32v-32h-64zM272 800h192v-192h-32v32c0 20.976-10.272 39.44-25.904 51.12 6.128 8.064 9.904 18 9.904 28.88 0 26.464-21.536 48-48 48s-48-21.536-48-48c0-10.88 3.776-20.816 9.904-28.88-15.632-11.68-25.904-30.144-25.904-51.12v-32h-32v192zM528 784h80v-32h-80v32zM528 720h96v-32h-96v32zM656 720h80v-32h-80v32zM528 656h208v-32h-208v32zM320 528h128v-32h-128v32zM480 528h96v-32h-96v32zM608 528h160v-32h-160v32zM256 464h128v-32h-128v32zM416 464h256v-32h-256v32zM704 464h64v-32h-64v32zM256 400h64v-32h-64v32zM352 400h192v-32h-192v32zM576 400h192v-32h-192v32zM256 336h64v-32h-64v32zM352 336h192v-32h-192v32zM576 336h192v-32h-192v32zM256 272h144v-32h-144v32zM432 272h224v-32h-224v32zM256 208h64v-32h-64v32zM352 208h272v-32h-272v32z" />
<glyph unicode="&#xe901;" glyph-name="application" d="M875.296 779.328l-143.968 143.968c-2.896 2.912-6.896 4.704-11.328 4.704h-496c-44.112 0-80-35.888-80-80v-800c0-44.112 35.888-80 80-80h576c44.112 0 80 35.888 80 80v720c0 4.432-1.792 8.432-4.704 11.328zM736 873.376l89.376-89.376h-89.376v89.376zM848 48c0-26.464-21.536-48-48-48h-576c-26.464 0-48 21.536-48 48v800c0 26.464 21.536 48 48 48h480v-128c0-8.848 7.168-16 16-16h128v-704zM288 704c-35.296 0-64-28.704-64-64s28.704-64 64-64 64 28.704 64 64-28.704 64-64 64zM288 608c-17.648 0-32 14.352-32 32s14.352 32 32 32 32-14.352 32-32-14.352-32-32-32zM288 528c-35.296 0-64-28.704-64-64s28.704-64 64-64 64 28.704 64 64-28.704 64-64 64zM288 432c-17.648 0-32 14.352-32 32s14.352 32 32 32 32-14.352 32-32-14.352-32-32-32zM288 352c-35.296 0-64-28.704-64-64s28.704-64 64-64 64 28.704 64 64-28.704 64-64 64zM288 256c-17.648 0-32 14.352-32 32s14.352 32 32 32 32-14.352 32-32-14.352-32-32-32zM288 176c-35.296 0-64-28.704-64-64s28.704-64 64-64 64 28.704 64 64-28.704 64-64 64zM288 80c-17.648 0-32 14.352-32 32s14.352 32 32 32 32-14.352 32-32-14.352-32-32-32zM384 624h416v-32h-416v32zM400 848h224v-32h-224v32zM352 784h320v-32h-320v32zM384 448h416v-32h-416v32zM384 272h416v-32h-416v32zM384 96h416v-32h-416v32zM512 688h32v-32h-32v32zM448 688h32v-32h-32v32zM384 688h32v-32h-32v32z" />
<glyph unicode="&#xe902;" glyph-name="education" d="M816 320h-140.48c-8.784 9.744-21.392 16-35.52 16-12.336 0-23.488-4.816-32-12.48-8.512 7.68-19.664 12.48-32 12.48s-23.488-4.816-32-12.48c-8.512 7.68-19.664 12.48-32 12.48s-23.488-4.816-32-12.48c-8.512 7.68-19.664 12.48-32 12.48-14.128 0-26.72-6.256-35.52-16h-268.48c-8.832 0-16-7.168-16-16v-112c0-44.112 35.888-80 80-80h128v-80c0-4.24 1.68-8.32 4.688-11.312l27.312-27.312v-25.376h32v32c0 4.24-1.68 8.32-4.688 11.312l-27.312 27.312v183.36c27.568-7.12 48-32.208 48-61.984v-80h32v32h208v-144h32v144h192c8.832 0 16 7.168 16 16v112c0 44.112-35.888 80-80 80zM640 304c8.816 0 16-7.184 16-16v-64c0-8.816-7.184-16-16-16s-16 7.184-16 16v64c0 8.816 7.184 16 16 16zM576 304c8.816 0 16-7.184 16-16v-64c0-8.816-7.184-16-16-16s-16 7.184-16 16v64c0 8.816 7.184 16 16 16zM512 304c8.816 0 16-7.184 16-16v-64c0-8.816-7.184-16-16-16s-16 7.184-16 16v64c0 8.816 7.184 16 16 16zM432 288c0 8.816 7.184 16 16 16s16-7.184 16-16v-64c0-8.816-7.184-16-16-16s-16 7.184-16 16v64zM352 256c-8.832 0-16-7.168-16-16v-96h-128c-26.464 0-48 21.536-48 48v96h240v-44.992c-14.144 8.208-30.512 12.992-48 12.992zM864 144h-416v16c0 5.52-0.576 10.88-1.472 16.144 0.496-0.016 0.976-0.144 1.472-0.144 12.336 0 23.488 4.816 32 12.48 8.512-7.68 19.664-12.48 32-12.48s23.488 4.816 32 12.48c8.512-7.68 19.664-12.48 32-12.48s23.488 4.816 32 12.48c8.512-7.68 19.664-12.48 32-12.48 26.464 0 48 21.536 48 48v64h128c26.464 0 48-21.536 48-48v-96zM960 531.776v239.552l20 5.168c7.072 1.84 12 8.208 12 15.504s-4.928 13.664-12 15.488l-464 120c-2.624 0.672-5.392 0.672-8.016 0l-464-120c-7.056-1.824-11.984-8.192-11.984-15.488s4.928-13.664 12-15.488l212-54.832v-225.68c0-7.344 4.992-13.744 12.112-15.52l101.6-25.392c-2.016-4.064-2.288-8.864-0.496-13.2 2.48-5.984 8.32-9.888 14.784-9.888h32v-32c0-6.464 3.904-12.304 9.872-14.784 1.984-0.816 4.064-1.216 6.128-1.216 4.16 0 8.256 1.632 11.312 4.688l68.688 68.688 68.688-68.688c3.056-3.056 7.152-4.688 11.312-4.688 2.064 0 4.144 0.4 6.128 1.216 5.968 2.48 9.872 8.32 9.872 14.784v32h32c6.464 0 12.304 3.904 14.784 9.872 1.792 4.352 1.52 9.136-0.496 13.2l101.6 25.392c7.12 1.792 12.112 8.192 12.112 15.536v225.68l160 41.376v-231.28l-30.32-60.624c-2.256-4.512-2.256-9.808 0-14.32l32-64c2.72-5.408 8.256-8.832 14.32-8.832s11.6 3.424 14.32 8.848l32 64c2.256 4.512 2.256 9.808 0 14.32l-30.32 60.608zM432 464h-9.376l28.592 28.592c7.872-9.296 17.584-16.928 28.88-21.872l-32.096-32.096v9.376c0 8.832-7.168 16-16 16zM512 496c-26.464 0-48 21.536-48 48s21.536 48 48 48 48-21.536 48-48-21.536-48-48-48zM592 464c-8.832 0-16-7.168-16-16v-9.376l-32.096 32.096c11.296 4.944 21.008 12.576 28.88 21.872l28.592-28.592h-9.376zM736 508.496l-107.088-26.768-40.352 40.352c2.016 7.008 3.44 14.256 3.44 21.92 0 44.112-35.888 80-80 80s-80-35.888-80-80c0-7.664 1.424-14.912 3.44-21.936l-40.352-40.352-107.088 26.784v204.912l220-56.896c1.312-0.336 2.656-0.512 4-0.512s2.688 0.176 4 0.512l220 56.896v-204.912zM512 688.528l-400.096 103.472 400.096 103.472 400.096-103.472-400.096-103.472zM944 435.776l-14.112 28.224 14.112 28.224 14.112-28.224-14.112-28.224zM128 384h32v-32h-32v32zM192 384h32v-32h-32v32zM256 384h32v-32h-32v32z" />
<glyph unicode="&#xe903;" glyph-name="email-2" d="M330.547 331.233l185.528-154.071-0.42-0.358-185.108 154.429zM515.871 213.637l-167.547 139.131 167.188-139.448 0.358 0.317zM972.8 577.249v-562.483h-921.6v562.534l98.529 64.584v154.173h235.213l129.966 85.187 128.307-85.187h230.994v-153.354l98.591-65.454zM874.22 516.393l61.42 52.009-61.42 40.776v-92.785zM435.876 796.058h156.856l-77.926 51.732-78.93-51.732zM177.654 495.114l337.859-281.795 0.369 0.317 330.424 281.395v273.101h-668.652v-273.019zM88.607 568.422l61.123-50.76v90.819l-61.123-40.059zM944.876 539.638l-428.431-362.772-437.319 363.151v-497.336h865.761v496.957zM509.921 361.656c-72.356 0-133.704 52.972-133.704 137.697 0 90.911 63.089 169.462 161.085 169.462 76.78 0 128.41-53.832 128.41-127.529 0-66.202-37.079-105.052-78.561-105.052-17.664 0-33.987 11.919-32.645 38.851h-1.772c-15.442-26.040-35.758-38.851-62.228-38.851-25.59 0-47.657 20.756-47.657 55.624 0 54.712 43.254 104.571 104.602 104.571 18.954 0 35.738-3.973 47.196-9.267l-14.981-79.872c-6.636-33.536-1.341-48.998 13.24-49.428 22.497-0.461 47.657 29.563 47.657 80.763 0 63.98-38.39 109.885-106.803 109.885-71.926 0-132.383-56.945-132.383-146.504 0-73.697 48.087-119.153 113.408-119.153 25.16 0 48.538 5.294 66.632 15.442l7.066-18.985c-24.279-12.79-48.978-17.654-78.561-17.654zM564.204 569.969c-4.403 1.311-11.919 3.092-22.067 3.092-38.82 0-70.154-36.618-70.154-79.442 0-19.415 9.687-33.536 29.133-33.536 25.59 0 48.968 32.645 53.832 60.027l9.257 49.859z" />
<glyph unicode="&#xe904;" glyph-name="email" d="M672 512c-70.576 0-128-57.424-128-128v-48c0-70.576 57.424-128 128-128h80c26.464 0 48 21.536 48 48h-32c0-8.816-7.168-16-16-16h-80c-52.944 0-96 43.056-96 96v48c0 52.944 43.056 96 96 96s96-43.056 96-96v-64c0-8.816-7.168-16-16-16s-16 7.184-16 16v64c0 35.296-28.704 64-64 64s-64-28.704-64-64v-32c0-35.296 28.704-64 64-64 13.664 0 26.272 4.384 36.672 11.696 7.68-16.304 24.144-27.696 43.328-27.696 26.464 0 48 21.536 48 48v64c0 70.576-57.424 128-128 128zM672 320c-17.648 0-32 14.352-32 32v32c0 17.648 14.352 32 32 32s32-14.352 32-32v-32c0-17.648-14.352-32-32-32zM494.704 2.688l3.68-31.776c10.96 1.28 22 2.992 32.848 5.104l-6.128 31.408c-10.048-1.952-20.272-3.552-30.4-4.736zM433.216 0.272l-1.184-31.984c5.296-0.192 10.608-0.288 15.968-0.288 5.776 0 11.536 0.112 17.264 0.336l-1.28 31.968c-10.224-0.384-20.608-0.4-30.768-0.032zM302.128-6.688c10.368-3.728 21.024-7.104 31.664-10l8.432 30.864c-9.824 2.688-19.68 5.808-29.296 9.264l-10.8-30.128zM366.144-24.24c10.8-2.080 21.84-3.76 32.832-5.008l3.6 31.792c-10.16 1.152-20.384 2.704-30.384 4.64l-6.048-31.424zM241.568 20.496c9.728-5.312 19.744-10.288 29.744-14.784l13.12 29.184c-9.264 4.16-18.528 8.768-27.568 13.68l-15.296-28.080zM136.416 100.912c7.712-8.016 15.744-15.776 23.904-23.056l21.312 23.872c-7.552 6.736-14.992 13.92-22.128 21.36l-23.088-22.176zM185.888 56.688c8.736-6.672 17.856-13.136 27.136-19.168l17.44 26.832c-8.592 5.584-17.024 11.552-25.104 17.744l-19.472-25.408zM555.040 14.496l8.56-30.832c10.624 2.944 21.28 6.352 31.664 10.128l-10.912 30.080c-9.6-3.488-19.456-6.64-29.312-9.376zM666.704 65.12l17.536-26.768c9.296 6.080 18.4 12.576 27.072 19.264l-19.568 25.328c-8.016-6.192-16.432-12.176-25.040-17.824zM715.392 102.672l21.408-23.776c7.792 7.008 15.456 14.416 22.768 22.016l-23.056 22.192c-6.8-7.072-13.904-13.936-21.12-20.432zM612.816 35.488l13.248-29.136c10.080 4.592 20.080 9.6 29.696 14.896l-15.44 28.032c-8.896-4.912-18.144-9.552-27.504-13.792zM401.296 829.312l-3.68 31.776c-10.96-1.28-22-2.992-32.848-5.104l6.128-31.408c10.048 1.952 20.272 3.552 30.4 4.736zM462.784 831.728l1.184 31.984c-11.008 0.4-22.176 0.368-33.232-0.048l1.28-31.968c10.208 0.4 20.592 0.416 30.768 0.032zM340.96 817.504l-8.56 30.832c-10.624-2.944-21.28-6.352-31.664-10.128l10.912-30.080c9.6 3.488 19.456 6.64 29.312 9.376zM283.184 796.512l-13.248 29.136c-10.080-4.592-20.080-9.6-29.696-14.896l15.44-28.032c8.896 4.912 18.144 9.552 27.504 13.792zM593.872 838.688c-10.368 3.728-21.024 7.104-31.664 10l-8.448-30.848c9.824-2.688 19.68-5.808 29.296-9.264l10.816 30.112zM529.856 856.24c-10.8 2.080-21.84 3.76-32.832 5.008l-3.584-31.808c10.16-1.152 20.384-2.704 30.384-4.64l6.032 31.44zM229.296 766.88l-17.536 26.768c-9.296-6.080-18.4-12.576-27.072-19.264l19.568-25.328c8.016 6.192 16.432 12.176 25.040 17.824zM710.112 775.312c-8.736 6.672-17.856 13.136-27.136 19.168l-17.44-26.832c8.592-5.584 17.024-11.552 25.104-17.744l19.472 25.408zM759.584 731.088c-7.712 8.016-15.744 15.776-23.904 23.056l-21.312-23.872c7.552-6.736 14.992-13.92 22.128-21.36l23.088 22.176zM180.608 729.328l-21.408 23.792c-7.792-7.008-15.456-14.416-22.768-22.016l23.056-22.192c6.8 7.056 13.904 13.92 21.12 20.416zM654.432 811.504c-9.728 5.312-19.744 10.288-29.744 14.784l-13.12-29.184c9.264-4.16 18.528-8.768 27.568-13.68l15.296 28.080zM992 656v32h-944c-8.848 0-16-7.168-16-16v-448c0-44.112 35.888-80 80-80h672c44.112 0 80 35.888 80 80v304h32v32h-32v32h80v32h-80v32h128zM782.56 656l-334.56-173.968-334.56 173.968h669.12zM784 176h-672c-26.464 0-48 21.536-48 48v421.648l376.624-195.84c2.32-1.2 4.848-1.808 7.376-1.808s5.056 0.608 7.376 1.808l376.624 195.84v-421.648c0-26.464-21.536-48-48-48zM96 240h32v-32h-32v32zM160 240h32v-32h-32v32zM224 240h32v-32h-32v32z" />
<glyph unicode="&#xe905;" glyph-name="pencil" d="M864 960c88.364 0 160-71.634 160-160 0-36.020-11.91-69.258-32-96l-64-64-224 224 64 64c26.742 20.090 59.978 32 96 32zM64 224l-64-288 288 64 592 592-224 224-592-592zM715.578 596.422l-448-448-55.156 55.156 448 448 55.156-55.156z" />
<glyph unicode="&#xe906;" glyph-name="homeless" d="M169.329 123.187c0-33.587-27.228-60.826-60.805-60.826-33.556 0-60.764 27.238-60.764 60.826 0 33.546 27.197 60.785 60.764 60.785s60.805-27.249 60.805-60.785zM243.057 18.104h-1.065c0.471-1.341 0.829-2.724 1.065-4.188v-3.645c0-12.329-9.677-22.436-21.862-23.040-0.41-0.010-0.809-0.010-1.188-0.010h-7.547v-0.020h-135.455c-12.728 0-23.060 10.322-23.060 23.081 0 12.739 10.332 23.071 23.060 23.071h119.91v102.328c0 12.759 10.342 23.101 23.081 23.101 12.728 0 23.050-10.353 23.050-23.101v-117.576zM281.17-12.8c0 0-0.276 89.098-0.276 144.927 0 51.405 46.817 60.088 110.469 48.589 0 0 1.884-0.358 5.14-1.096h0.031c2.294 0.154 4.69 0.113 7.127-0.195l347.238-50.985c21.207-2.714 49.725-15.585 49.725-50.053v-91.187h-519.455zM929.28 908.493h43.080v-921.293h-43.080v921.293zM678.216 886.323h275.302v-16.302h-275.302v16.302zM630.948 900.321h177.254v-43.725h-177.254v43.725zM630.948 843.622h117.023v-19.272h-117.023v19.272z" />
<glyph unicode="&#xe907;" glyph-name="house" d="M102.4 448h51.2v-435.2c0-14.141 11.459-25.6 25.6-25.6h665.6c14.141 0 25.6 11.459 25.6 25.6v435.2h51.2c10.353 0 19.692 6.236 23.654 15.8s1.772 20.572-5.55 27.894l-409.6 409.6c-9.994 10.004-26.214 10.004-36.198 0l-409.6-409.6c-7.322-7.322-9.513-18.33-5.55-27.894 3.953-9.564 13.292-15.8 23.644-15.8zM691.2 38.4h-102.4v256h102.4v-256zM819.2 38.4h-76.8v281.6c0 14.141-11.459 25.6-25.6 25.6h-153.6c-14.141 0-25.6-11.459-25.6-25.6v-281.6h-332.8v409.6h614.4v-409.6zM512 846.991l347.791-347.791h-695.583l347.791 347.791zM307.2 140.8h153.6c14.141 0 25.6 11.459 25.6 25.6v153.6c0 14.141-11.459 25.6-25.6 25.6h-153.6c-14.141 0-25.6-11.459-25.6-25.6v-153.6c0-14.141 11.459-25.6 25.6-25.6zM332.8 294.4h102.4v-102.4h-102.4v102.4z" />
<glyph unicode="&#xe908;" glyph-name="job-center" d="M595.651-64c0 106.004 85.975 191.969 192.020 191.969s192.010-85.975 192.010-191.969zM339.64 277.309c0-58.912-47.758-106.67-106.67-106.67s-106.67 47.758-106.67 106.67c0 58.912 47.758 106.67 106.67 106.67s106.67-47.758 106.67-106.67zM40.96-64c0 106.004 85.985 191.969 192.010 191.969 106.066 0 192.010-85.975 192.010-191.969zM744.991 429.445l-155.791 103.875h-36.209c-54.231 0-85.33 31.078-85.33 85.34v256.010c-0.010 54.211 31.099 85.33 85.32 85.33h341.361c54.211 0 85.34-31.119 85.34-85.33v-256.010c0-54.262-31.13-85.34-85.34-85.34h-149.35v-103.875zM552.98 917.34c-30.71 0-42.67-11.96-42.67-42.67v-256.010c0-30.71 11.96-42.67 42.67-42.67h49.132l100.209-66.836v66.836h192.020c30.71 0 42.67 11.96 42.67 42.67v256.010c0 30.71-11.96 42.67-42.67 42.67h-341.361zM552.98 490.65c-28.59 0-53.381 6.922-73.411 19.384l-97.27-64.881v66.836h-170.67c-30.71 0-42.67 11.95-42.67 42.66v277.35c0 30.71 11.96 42.67 42.67 42.67h213.34c0 15.503 2.509 29.542 6.328 42.67h-219.668c-54.231 0-85.33-31.13-85.33-85.34v-277.35c0-54.252 31.109-85.33 85.33-85.33h128v-103.885l155.802 103.885h14.879c26.419 0 47.237 7.496 61.757 21.33h-19.087zM851.671 810.67h-64c0 41.257 0 64-42.68 64h-42.67c-42.67 0-42.67-22.753-42.67-64h-64c0 0-21.33 0-21.33-21.33s0-149.34 0-149.34 0-21.33 21.33-21.33 256.020 0 256.020 0 21.34 0 21.34 21.33c0 21.34 0 149.34 0 149.34s0 21.33-21.34 21.33zM702.321 810.67c0 7.997 0 15.759 0.195 21.33h42.291c0.195-5.581 0.195-13.332 0.195-21.33h-42.68zM318.3 617.738c-11.776 0-21.33 9.544-21.33 21.33v43.592c0 11.796 9.554 21.33 21.33 21.33 38.513 0 42.67 29.839 42.67 42.67 0 23.501-19.139 42.67-42.67 42.67s-42.67-19.169-42.67-42.67c0-11.796-9.554-21.33-21.33-21.33-11.786 0-21.33 9.544-21.33 21.33 0 47.043 38.287 85.33 85.33 85.33 47.053 0 85.34-38.287 85.34-85.33 0-43.54-24.965-74.926-64-83.18v-24.422c0-11.776-9.554-21.32-21.34-21.32zM339.64 575.99c0-11.78-9.55-21.33-21.33-21.33s-21.33 9.55-21.33 21.33c0 11.78 9.55 21.33 21.33 21.33s21.33-9.55 21.33-21.33zM894.341 277.309c0-58.912-47.758-106.67-106.67-106.67s-106.67 47.758-106.67 106.67c0 58.912 47.758 106.67 106.67 106.67s106.67-47.758 106.67-106.67z" />
<glyph unicode="&#xe909;" glyph-name="phone" d="M768 928h-512c-44.112 0-80-35.888-80-80v-800c0-44.112 35.888-80 80-80h512c44.112 0 80 35.888 80 80v800c0 44.112-35.888 80-80 80zM256 896h512c26.464 0 48-21.536 48-48v-16h-608v16c0 26.464 21.536 48 48 48zM816 800v-672h-608v672h608zM768 0h-512c-26.464 0-48 21.536-48 48v48h608v-48c0-26.464-21.536-48-48-48zM316.448 485.152l186.992-186.976c27.184-27.2 63.36-42.176 101.808-42.176 38.464 0 74.64 14.976 101.824 42.176l30.864 30.864c18.72 18.72 18.72 49.168 0 67.888l-50.736 50.736c-18.112 18.128-49.744 18.16-67.888 0l-30.064-30.048-153.376 153.376 30.064 30.048c18.72 18.72 18.72 49.168 0 67.888l-50.752 50.736c-18.128 18.128-49.728 18.144-67.872 0l-30.864-30.864c-56.128-56.144-56.128-147.488 0-203.648zM339.072 666.176l30.864 30.864c3.024 3.024 7.040 4.688 11.312 4.688 4.288 0 8.288-1.664 11.296-4.672 0.016 0 0.016 0 0.016 0l50.752-50.736c6.24-6.24 6.24-16.384 0-22.64l-41.376-41.36c-3.008-3.008-4.688-7.072-4.688-11.312s1.68-8.32 4.688-11.312l176-176c6.256-6.256 16.368-6.256 22.624 0l41.376 41.36c6.080 6.048 16.576 6.032 22.624 0l50.752-50.736c6.24-6.24 6.24-16.384 0-22.64l-30.864-30.864c-21.152-21.152-49.28-32.8-79.2-32.8-29.904 0-58.032 11.648-79.184 32.8l-186.992 186.96c-43.648 43.68-43.648 114.736 0 158.4zM496 224h32v-32h-32v32zM432 224h32v-32h-32v32zM560 224h32v-32h-32v32zM560 496h32c0 44.112-35.888 80-80 80v-32c26.464 0 48-21.536 48-48zM624 496h32c0 79.392-64.592 144-144 144v-32c61.744 0 112-50.24 112-112zM688 496h32c0 114.688-93.312 208-208 208v-32c97.040 0 176-78.96 176-176z" />
<glyph unicode="&#xe90a;" glyph-name="resume" d="M986.4 690.8c-63.8 63.6-140.8 21.6-162.6 0l-31.6-31.4v296.6h-788.2v-1016h788.2v395l194 193.6c45 44.8 45 117.4 0.2 162.2zM759.4-27.2h-722.6v950.4h722.6v-296.6l-64-63.8h-231.6v-32.8h198.8l-131.4-131h-428.6v-33h395.8l-131.4-131h-264.4v-32.8h240.6l-12.8-166 176.2 13.6 253 252.4v-329.4zM373.4 167.8l88.8-88.6-96.2-7.4 7.4 96zM499.2 88.8l-116.2 115.8 452.4 451.4 116.2-115.8-452.4-451.4zM973.6 564.6l-113.8 113.4c13.4 8.8 61.4 31.6 103.4-10.4 28-28 31.4-71.2 10.4-103zM476 158.4l405.8 405-23.2 23.2-405.8-405zM397.4 857.6h-294.8v-327.6h295v327.6zM364.6 562.8h-229.2v262.2h229.2v-262.2zM250 644.6c36.2 0 65.6-29.4 65.6-65.6h32.8c0 42-26.4 77.8-63.6 91.8 18.6 11.6 31 32.2 31 55.6 0 36.4-29.6 65.8-66 65.8s-66-29.6-66-65.8c0-23.4 12.4-44 31-55.6-37.2-14.2-63.6-49.8-63.6-91.8h32.8c0.4 36.2 29.8 65.6 66 65.6zM250 759.6c18.2 0 33.2-14.8 33.2-33.2 0-18.2-14.8-33.2-33.2-33.2-18.2 0-33.2 14.8-33.2 33.2s15 33.2 33.2 33.2zM463.8 857.6h230v-32.8h-230v32.8zM463.8 710.2h230v-32.8h-230v32.8zM102.6 71h32.8v-32.8h-32.8v32.8zM168.2 71h32.8v-32.8h-32.8v32.8zM234 71h32.8v-32.8h-32.8v32.8z" />
<glyph unicode="&#xe9df;" glyph-name="happy" d="M512-64c282.77 0 512 229.23 512 512s-229.23 512-512 512-512-229.23-512-512 229.23-512 512-512zM512 864c229.75 0 416-186.25 416-416s-186.25-416-416-416-416 186.25-416 416 186.25 416 416 416zM512 361.24c115.95 0 226.23 30.806 320 84.92-14.574-178.438-153.128-318.16-320-318.16-166.868 0-305.422 139.872-320 318.304 93.77-54.112 204.050-85.064 320-85.064zM256 608c0 53.019 28.654 96 64 96s64-42.981 64-96c0-53.019-28.654-96-64-96s-64 42.981-64 96zM640 608c0 53.019 28.654 96 64 96s64-42.981 64-96c0-53.019-28.654-96-64-96s-64 42.981-64 96z" />
<glyph unicode="&#xea0a;" glyph-name="plus" d="M992 576h-352v352c0 17.672-14.328 32-32 32h-192c-17.672 0-32-14.328-32-32v-352h-352c-17.672 0-32-14.328-32-32v-192c0-17.672 14.328-32 32-32h352v-352c0-17.672 14.328-32 32-32h192c17.672 0 32 14.328 32 32v352h352c17.672 0 32 14.328 32 32v192c0 17.672-14.328 32-32 32z" />
<glyph unicode="&#xea0b;" glyph-name="minus" d="M0 544v-192c0-17.672 14.328-32 32-32h960c17.672 0 32 14.328 32 32v192c0 17.672-14.328 32-32 32h-960c-17.672 0-32-14.328-32-32z" />
<glyph unicode="&#xea0e;" glyph-name="blocked" d="M874.040 810.040c-96.706 96.702-225.28 149.96-362.040 149.96s-265.334-53.258-362.040-149.96c-96.702-96.706-149.96-225.28-149.96-362.040s53.258-265.334 149.96-362.040c96.706-96.702 225.28-149.96 362.040-149.96s265.334 53.258 362.040 149.96c96.702 96.706 149.96 225.28 149.96 362.040s-53.258 265.334-149.96 362.040zM896 448c0-82.814-26.354-159.588-71.112-222.38l-535.266 535.268c62.792 44.758 139.564 71.112 222.378 71.112 211.738 0 384-172.262 384-384zM128 448c0 82.814 26.354 159.586 71.112 222.378l535.27-535.268c-62.794-44.756-139.568-71.11-222.382-71.11-211.738 0-384 172.262-384 384z" />
<glyph unicode="&#xea0f;" glyph-name="cross" d="M1014.662 137.34c-0.004 0.004-0.008 0.008-0.012 0.010l-310.644 310.65 310.644 310.65c0.004 0.004 0.008 0.006 0.012 0.010 3.344 3.346 5.762 7.254 7.312 11.416 4.246 11.376 1.824 24.682-7.324 33.83l-146.746 146.746c-9.148 9.146-22.45 11.566-33.828 7.32-4.16-1.55-8.070-3.968-11.418-7.31 0-0.004-0.004-0.006-0.008-0.010l-310.648-310.652-310.648 310.65c-0.004 0.004-0.006 0.006-0.010 0.010-3.346 3.342-7.254 5.76-11.414 7.31-11.38 4.248-24.682 1.826-33.83-7.32l-146.748-146.748c-9.148-9.148-11.568-22.452-7.322-33.828 1.552-4.16 3.97-8.072 7.312-11.416 0.004-0.002 0.006-0.006 0.010-0.010l310.65-310.648-310.65-310.652c-0.002-0.004-0.006-0.006-0.008-0.010-3.342-3.346-5.76-7.254-7.314-11.414-4.248-11.376-1.826-24.682 7.322-33.83l146.748-146.746c9.15-9.148 22.452-11.568 33.83-7.322 4.16 1.552 8.070 3.97 11.416 7.312 0.002 0.004 0.006 0.006 0.010 0.010l310.648 310.65 310.648-310.65c0.004-0.002 0.008-0.006 0.012-0.008 3.348-3.344 7.254-5.762 11.414-7.314 11.378-4.246 24.684-1.826 33.828 7.322l146.746 146.748c9.148 9.148 11.57 22.454 7.324 33.83-1.552 4.16-3.97 8.068-7.314 11.414z" />
<glyph unicode="&#xea10;" glyph-name="checkmark" d="M864 832l-480-480-224 224-160-160 384-384 640 640z" />
<glyph unicode="&#xea11;" glyph-name="checkmark2" d="M397.434 42.304l-397.868 391.6 197.378 194.27 200.49-197.332 429.62 422.852 197.378-194.27-626.998-617.12zM107.912 433.904l289.524-284.962 518.656 510.482-89.036 87.632-429.62-422.852-200.49 197.334-89.034-87.634z" />
<glyph unicode="&#xea3a;" glyph-name="arrow-up2" d="M877.254 557.254l-320 320c-24.992 24.994-65.514 24.994-90.508 0l-320-320c-24.994-24.994-24.994-65.516 0-90.51 24.994-24.996 65.516-24.996 90.51 0l210.744 210.746v-613.49c0-35.346 28.654-64 64-64s64 28.654 64 64v613.49l210.746-210.746c12.496-12.496 28.876-18.744 45.254-18.744s32.758 6.248 45.254 18.746c24.994 24.994 24.994 65.514 0 90.508z" />
<glyph unicode="&#xea3b;" glyph-name="arrow-up-right2" d="M237.254 82.746l530.746 530.744v-229.49c0-35.346 28.654-64 64-64s64 28.654 64 64v384c0 25.884-15.594 49.222-39.508 59.126-7.924 3.284-16.242 4.84-24.492 4.838v0.036h-384c-35.346 0-64-28.654-64-64 0-35.348 28.654-64 64-64h229.49l-530.744-530.746c-12.498-12.496-18.746-28.876-18.746-45.254s6.248-32.758 18.746-45.254c24.992-24.994 65.516-24.994 90.508 0z" />
<glyph unicode="&#xea3c;" glyph-name="arrow-right2" d="M621.254 82.746l320 320c24.994 24.992 24.994 65.516 0 90.51l-320 320c-24.994 24.992-65.516 24.992-90.51 0-24.994-24.994-24.994-65.516 0-90.51l210.746-210.746h-613.49c-35.346 0-64-28.654-64-64s28.654-64 64-64h613.49l-210.746-210.746c-12.496-12.496-18.744-28.876-18.744-45.254s6.248-32.758 18.744-45.254c24.994-24.994 65.516-24.994 90.51 0z" />
<glyph unicode="&#xea3d;" glyph-name="arrow-down-right2" d="M146.746 722.746l530.742-530.746h-229.488c-35.346 0-64-28.654-64-64s28.654-64 64-64h384c25.884 0 49.222 15.594 59.126 39.508 3.284 7.924 4.84 16.242 4.838 24.492h0.036v384c0 35.346-28.654 64-64 64-35.348 0-64-28.654-64-64v-229.49l-530.746 530.744c-12.496 12.498-28.874 18.746-45.254 18.746s-32.758-6.248-45.254-18.746c-24.994-24.992-24.994-65.516 0-90.508z" />
<glyph unicode="&#xea3e;" glyph-name="arrow-down2" d="M877.254 338.746l-320-320c-24.992-24.994-65.514-24.994-90.508 0l-320 320c-24.994 24.994-24.994 65.516 0 90.51 24.994 24.996 65.516 24.996 90.51 0l210.744-210.746v613.49c0 35.346 28.654 64 64 64s64-28.654 64-64v-613.49l210.746 210.746c12.496 12.496 28.876 18.744 45.254 18.744s32.758-6.248 45.254-18.746c24.994-24.994 24.994-65.514 0-90.508z" />
<glyph unicode="&#xea3f;" glyph-name="arrow-down-left2" d="M786.744 813.256l-530.744-530.744v229.49c0 35.346-28.654 64-64 64s-64-28.654-64-64v-384.002c0-25.886 15.592-49.222 39.508-59.128 7.924-3.282 16.242-4.84 24.492-4.836v-0.036l384 0.002c35.344 0 64 28.654 64 63.998 0 35.348-28.656 64-64 64h-229.49l530.744 530.746c12.496 12.496 18.746 28.876 18.746 45.256 0 16.376-6.25 32.758-18.746 45.254-24.992 24.992-65.518 24.992-90.51 0v0z" />
<glyph unicode="&#xea40;" glyph-name="arrow-left2" d="M402.746 82.746l-320 320c-24.994 24.992-24.994 65.516 0 90.51l320 320c24.994 24.992 65.516 24.992 90.51 0 24.994-24.994 24.994-65.516 0-90.51l-210.746-210.746h613.49c35.346 0 64-28.654 64-64s-28.654-64-64-64h-613.49l210.746-210.746c12.496-12.496 18.744-28.876 18.744-45.254s-6.248-32.758-18.744-45.254c-24.994-24.994-65.516-24.994-90.51 0z" />
</font>
</defs>
</svg>
